<svg width="138" height="41" viewBox="0 0 138 41" fill="none" xmlns="http://www.w3.org/2000/svg">
<g clip-path="url(#clip0_573_2147)">
<path d="M38.2859 0.0802903V20.0381V20.125C38.2859 23.1511 38.7729 26.7751 36.6886 29.2833C34.2082 32.2682 29.8423 31.5297 26.4064 31.5297H0.0650118V29.2493V11.485C0.0650118 8.52295 -0.464373 4.99876 1.49814 2.49946C3.99735 -0.683345 8.37988 0.0802903 11.9445 0.0802903H38.2859ZM3.50829 28.0737H24.3404C27.4939 28.0737 31.2556 28.9146 33.4403 26.1753C36.0081 22.9555 34.8426 17.0538 34.8426 13.213V6.30104C34.8426 5.66683 35.0954 4.3169 34.6895 3.79145C34.2318 3.19874 32.2539 3.53627 31.5714 3.53627H22.2745H12.461C10.2745 3.53627 6.9862 3.23161 5.14792 4.60272C2.71002 6.42099 3.50829 9.7622 3.50829 12.5218V28.0737Z" fill="#FFB703"/>
<path d="M0.072453 30.3894C0.072453 33.6757 -0.112737 36.8207 2.96198 39.0147C5.87854 41.0959 10.681 40.9302 14.0692 40.9302H41.7171C41.7171 37.7692 42.0756 34.6577 39.2599 32.4493C36.3043 30.1313 31.2339 30.3894 27.7203 30.3894H0.072453ZM36.1875 33.6726H10.9588C9.2043 33.6726 3.52406 33.8273 3.18278 32.2902H28.2387C30.1727 32.2902 35.6599 32.2039 36.1875 33.6726Z" fill="#FFB703"/>
<path d="M13.049 11.7793C12.8476 13.7507 12.3388 22.3691 17.1185 22.3319L26.5001 22.259C26.5042 17.9904 24.5667 11.7881 20.4812 11.7795M20.8765 16.9255C19.4206 15.9558 18.8723 15.2799 17.5573 15.2825C15.9472 15.2858 14.4761 14.2841 14.5918 12.9961C14.5918 12.9961 15.9122 14.223 17.1581 14.2134C18.6767 14.2017 20.0654 15.15 20.8765 16.9255Z" fill="#FFB703"/>
<path d="M61.596 18.0086L60.6744 20.159C59.2024 23.6151 58.1207 26.1495 57.4295 27.7623H65.5129C64.8601 26.0087 64.2073 24.3255 63.5544 22.7127C62.9016 21.087 62.2488 19.519 61.596 18.0086ZM66.5497 30.3928H56.1623C55.1383 32.62 54.4215 34.3673 54.0119 35.6345C53.6151 36.9017 53.4167 37.9897 53.4167 38.8985L53.3975 39.2057C53.1031 39.2441 52.8855 39.2633 52.7447 39.2633C52.6167 39.2761 52.4951 39.2825 52.3799 39.2825C51.5478 39.2825 50.9142 39.1161 50.479 38.7833C50.0438 38.4377 49.8262 37.9385 49.8262 37.2857C49.8262 36.6329 51.0678 33.8104 53.5511 28.8184C56.0343 23.8263 58.204 19.1862 60.06 14.8981C59.8552 14.6037 59.6312 14.3221 59.388 14.0533C59.1576 13.7717 58.908 13.4901 58.6392 13.2085C59.1128 12.6197 59.5416 12.1909 59.9256 11.9221C60.3224 11.6533 60.7192 11.5189 61.116 11.5189C61.6664 11.5189 62.1976 11.8773 62.7096 12.5941C63.2344 13.2981 63.8424 14.5013 64.5337 16.2038C65.1353 17.6758 65.9609 19.7302 67.0105 22.3671C70.569 31.3144 73.0458 36.4537 74.441 37.7849C73.9546 38.3225 73.5066 38.7065 73.097 38.9369C72.6874 39.1673 72.2586 39.2825 71.8106 39.2825C70.5178 39.2825 69.0521 37.0809 67.4137 32.6776C67.0425 31.7048 66.7545 30.9432 66.5497 30.3928ZM82.5628 14.6293C82.4604 16.767 82.3836 18.815 82.3324 20.7734C82.2812 22.7319 82.2556 24.6263 82.2556 26.4567C82.358 26.4567 82.5052 26.4631 82.6972 26.4759C82.902 26.4887 83.0556 26.4951 83.158 26.4951C85.7692 26.4951 87.8108 25.8807 89.2829 24.6519C90.7549 23.4231 91.4909 21.7206 91.4909 19.5446C91.4909 17.8806 90.9469 16.5942 89.8589 15.6853C88.7837 14.7765 87.2604 14.3221 85.2892 14.3221C84.854 14.3221 84.4124 14.3477 83.9644 14.3989C83.5164 14.4501 83.0492 14.5269 82.5628 14.6293ZM89.0141 27.7239C89.9485 28.044 91.1069 28.9848 92.4893 30.5464C92.8605 30.9688 93.1421 31.2888 93.3341 31.5064C94.7806 33.0808 96.0414 34.3097 97.1166 35.1929C98.1918 36.0633 99.107 36.6009 99.8622 36.8057C99.491 37.8041 99.1006 38.5209 98.691 38.9561C98.2814 39.3785 97.795 39.5897 97.2318 39.5897C96.7582 39.5897 96.2334 39.3913 95.6574 38.9945C95.0942 38.5977 94.4286 37.9449 93.6605 37.0361C93.0845 36.3705 92.3037 35.4489 91.3181 34.2713C88.2973 30.6104 85.8908 28.78 84.0988 28.78C83.894 28.78 83.6444 28.7928 83.35 28.8184C83.0556 28.8312 82.6908 28.8632 82.2556 28.9144C82.3324 31.7688 82.4604 33.8617 82.6396 35.1929C82.8188 36.5113 83.094 37.5353 83.4652 38.2649C82.8508 38.5977 82.2812 38.8473 81.7563 39.0137C81.2443 39.1673 80.7707 39.2441 80.3355 39.2441C79.6315 39.2441 79.1515 39.0649 78.8955 38.7065C78.6395 38.3481 78.5115 37.6121 78.5115 36.4985C78.5115 36.1145 78.5691 34.4313 78.6843 31.4488C78.8123 28.4664 78.8763 25.6631 78.8763 23.0391C78.8763 19.6598 78.7867 17.1574 78.6075 15.5317C78.4283 13.9061 78.1403 12.6645 77.7435 11.8069C79.3947 11.7557 81.1227 11.6789 82.9276 11.5765C84.7324 11.4613 85.7372 11.4037 85.942 11.4037C88.8221 11.4037 91.0877 12.0885 92.7389 13.4581C94.403 14.8277 95.235 16.6838 95.235 19.0262C95.235 21.087 94.7102 22.8535 93.6605 24.3255C92.6109 25.7847 91.0621 26.9175 89.0141 27.7239ZM108.963 38.2649C108.362 38.5849 107.786 38.8281 107.235 38.9945C106.685 39.1609 106.16 39.2441 105.661 39.2441C104.982 39.2441 104.515 39.0585 104.259 38.6873C104.016 38.3033 103.894 37.5737 103.894 36.4985C103.894 35.9481 103.952 34.2137 104.067 31.2952C104.182 28.364 104.24 25.6951 104.24 23.2887C104.24 20.2038 104.144 17.8294 103.952 16.1654C103.773 14.4885 103.478 13.2789 103.069 12.5365C103.722 12.1909 104.31 11.9349 104.835 11.7685C105.373 11.6021 105.872 11.5189 106.333 11.5189C106.998 11.5189 107.466 11.7109 107.734 12.0949C108.003 12.4789 108.138 13.1637 108.138 14.1493C108.138 14.3029 108.067 15.8965 107.926 18.9302C107.798 21.9511 107.734 24.9079 107.734 27.8007C107.734 30.7192 107.83 32.9912 108.022 34.6169C108.214 36.2425 108.528 37.4585 108.963 38.2649ZM124.496 18.0086L123.575 20.159C122.103 23.6151 121.021 26.1495 120.33 27.7623H128.413C127.76 26.0087 127.108 24.3255 126.455 22.7127C125.802 21.087 125.149 19.519 124.496 18.0086ZM129.45 30.3928H119.063C118.039 32.62 117.322 34.3673 116.912 35.6345C116.515 36.9017 116.317 37.9897 116.317 38.8985L116.298 39.2057C116.003 39.2441 115.786 39.2633 115.645 39.2633C115.517 39.2761 115.395 39.2825 115.28 39.2825C114.448 39.2825 113.814 39.1161 113.379 38.7833C112.944 38.4377 112.726 37.9385 112.726 37.2857C112.726 36.6329 113.968 33.8104 116.451 28.8184C118.935 23.8263 121.104 19.1862 122.96 14.8981C122.755 14.6037 122.531 14.3221 122.288 14.0533C122.058 13.7717 121.808 13.4901 121.539 13.2085C122.013 12.6197 122.442 12.1909 122.826 11.9221C123.223 11.6533 123.619 11.5189 124.016 11.5189C124.567 11.5189 125.098 11.8773 125.61 12.5941C126.135 13.2981 126.743 14.5013 127.434 16.2038C128.036 17.6758 128.861 19.7302 129.911 22.3671C133.469 31.3144 135.946 36.4537 137.341 37.7849C136.855 38.3225 136.407 38.7065 135.997 38.9369C135.588 39.1673 135.159 39.2825 134.711 39.2825C133.418 39.2825 131.952 37.0809 130.314 32.6776C129.943 31.7048 129.655 30.9432 129.45 30.3928Z" fill="#FFB703"/>
</g>
<defs>
<clipPath id="clip0_573_2147">
<rect width="137.321" height="40.9334" fill="white"/>
</clipPath>
</defs>
</svg>
