<?xml version="1.0" encoding="UTF-8" standalone="no"?>
<!-- Created with Inkscape (http://www.inkscape.org/) -->

<svg
   version="1.1"
   id="svg1"
   width="345.80927"
   height="116.69907"
   viewBox="0 0 345.80927 116.69907"
   sodipodi:docname="logo-Aria.svg"
   xml:space="preserve"
   inkscape:version="1.3.2 (091e20e, 2023-11-25, custom)"
   xmlns:inkscape="http://www.inkscape.org/namespaces/inkscape"
   xmlns:sodipodi="http://sodipodi.sourceforge.net/DTD/sodipodi-0.dtd"
   xmlns="http://www.w3.org/2000/svg"
   xmlns:svg="http://www.w3.org/2000/svg"><defs
     id="defs1" /><sodipodi:namedview
     id="namedview1"
     pagecolor="#ffffff"
     bordercolor="#666666"
     borderopacity="1.0"
     inkscape:showpageshadow="2"
     inkscape:pageopacity="0.0"
     inkscape:pagecheckerboard="0"
     inkscape:deskcolor="#d1d1d1"
     showgrid="false"
     inkscape:zoom="2.322973"
     inkscape:cx="546.92844"
     inkscape:cy="407.02152"
     inkscape:window-width="1920"
     inkscape:window-height="1009"
     inkscape:window-x="-8"
     inkscape:window-y="-8"
     inkscape:window-maximized="1"
     inkscape:current-layer="g1"
     showguides="true"><inkscape:grid
       id="grid1"
       units="px"
       originx="-545.62348"
       originy="-297.14562"
       spacingx="1"
       spacingy="1"
       empcolor="#3f3fff"
       empopacity="0.25098039"
       color="#3f3fff"
       opacity="0.1254902"
       empspacing="5"
       dotted="false"
       gridanglex="30"
       gridanglez="30"
       visible="false" /></sodipodi:namedview><g
     inkscape:groupmode="layer"
     inkscape:label="Image"
     id="g1"
     transform="translate(-545.62347,-297.14563)"><g
       id="g13"
       transform="translate(-38.390365,62.225396)"
       inkscape:label="logo-V2"
       inkscape:export-filename="..\..\..\..\codingggg\Aria-resume\images\logo-V2.svg"
       inkscape:export-xdpi="15.076425"
       inkscape:export-ydpi="15.076425"><text
         xml:space="preserve"
         style="font-size:39.9999px;line-height:1.25;font-family:'UD Digi Kyokasho N-B';-inkscape-font-specification:'UD Digi Kyokasho N-B, Normal';letter-spacing:0px;word-spacing:0px;fill:#ffb703;fill-opacity:1;stroke-width:0;stroke-dasharray:none"
         x="713.72937"
         y="332.52634"
         id="text372-5-4"
         inkscape:export-filename="..\..\..\..\codingggg\Aria-resume\images\logo-V2.svg"
         inkscape:export-xdpi="15.076425"
         inkscape:export-ydpi="15.076425"><tspan
           sodipodi:role="line"
           id="tspan372-2-1"
           x="713.72937"
           y="332.52634"
           style="font-style:normal;font-variant:normal;font-weight:normal;font-stretch:normal;font-size:96px;font-family:'Maiandra GD';-inkscape-font-specification:'Maiandra GD, Normal';font-variant-ligatures:normal;font-variant-caps:normal;font-variant-numeric:normal;font-variant-east-asian:normal;fill:#ffb703;fill-opacity:1;stroke-width:0;stroke-dasharray:none">ARIA</tspan></text><path
         id="path372-6-09-7-4-6-0"
         style="fill:#ffb703;fill-opacity:1;stroke:none;stroke-width:0.551156"
         d="m 584.03186,313.50031 c -0.0332,11.72065 -0.59217,22.93513 8.15625,30.79888 8.29843,7.4591 21.99931,6.92982 31.66406,6.97251 l 78.86523,0.34761 c 0.0319,-11.27352 1.08578,-22.36552 -6.92382,-30.27732 -8.40717,-8.30419 -22.87399,-7.44767 -32.89649,-7.49182 z m 6.70117,7.63828 54.56641,0.2034 c 0,0 8.85964,1.02611 9.60742,3.76934 l -56.60352,-0.51315 c 0,0 -7.97083,-0.40653 -7.57031,-3.45959 z m 91.33789,0.058 c 10.55804,-0.0764 15.79334,16.04398 15.86914,26.97652 0,0 -17.06223,0.1303 -24.92383,0.2034 -7.08242,0.0667 -10.16358,-5.33529 -10.26953,-27.00177 z m -14.91211,2.91699 c -0.38242,0.0232 -0.67529,0.10522 -0.85547,0.23739 -0.60169,7.28057 6.04275,2.79157 14.54883,10.69944 -3.92644,-8.33885 -11.01643,-11.09008 -13.69336,-10.93683 z" /><path
         id="path372-8-7-1-5-2"
         style="fill:#ffb703;fill-opacity:1;stroke:none;stroke-width:0.409234"
         d="m 685.6381,234.92023 c 0.54634,0.50177 1.07531,1.03918 1.56444,1.66211 4.65629,5.9299 3.40039,14.29244 3.40039,21.32032 v 42.14648 5.41211 H 628.1049 c -7.42835,0 -16.67841,1.43201 -22.71681,-3.66797 l 8.26758,-6.89062 64.39062,-53.65821 z"
         sodipodi:nodetypes="cssccscccc" /><path
         id="path372-8-7-1-2-0-1"
         style="fill:#ffb703;fill-opacity:1;stroke:none;stroke-width:0.409234"
         d="m 590.92465,306 c -0.54636,-0.50178 -1.07532,-1.03918 -1.56446,-1.66211 -4.65627,-5.92989 -3.40038,-14.29244 -3.40038,-21.32031 v -42.14648 -5.41212 h 62.49803 c 7.42834,0 16.67841,-1.43201 22.71681,3.66798 l -8.26759,6.89062 c -5.27818,-3.85364 -12.85715,-2.35742 -19.35156,-2.35742 h -49.42578 v 36.89844 c 0,6.54751 -1.89356,14.47499 3.89062,18.78905 0.1582,0.118 0.32915,0.22037 0.49611,0.32813 z" /></g></g></svg>
